<?xml version="1.0" encoding="UTF-8" standalone="no"?>
<svg
   xmlns:dc="http://purl.org/dc/elements/1.1/"
   xmlns:cc="http://creativecommons.org/ns#"
   xmlns:rdf="http://www.w3.org/1999/02/22-rdf-syntax-ns#"
   xmlns:svg="http://www.w3.org/2000/svg"
   xmlns="http://www.w3.org/2000/svg"
   xmlns:sodipodi="http://sodipodi.sourceforge.net/DTD/sodipodi-0.dtd"
   xmlns:inkscape="http://www.inkscape.org/namespaces/inkscape"
   version="1.1"
   width="24"
   height="24"
   viewBox="0 0 24 24"
   id="svg2"
   inkscape:version="0.91 r13725"
   sodipodi:docname="youtube.svg">
  <metadata
     id="metadata10">
    <rdf:RDF>
      <cc:Work
         rdf:about="">
        <dc:format>image/svg+xml</dc:format>
        <dc:type
           rdf:resource="http://purl.org/dc/dcmitype/StillImage" />
      </cc:Work>
    </rdf:RDF>
  </metadata>
  <defs
     id="defs8" />
  <sodipodi:namedview
     pagecolor="#ffffff"
     bordercolor="#666666"
     borderopacity="1"
     objecttolerance="10"
     gridtolerance="10"
     guidetolerance="10"
     inkscape:pageopacity="0"
     inkscape:pageshadow="2"
     inkscape:window-width="1920"
     inkscape:window-height="1017"
     id="namedview6"
     showgrid="false"
     inkscape:zoom="32"
     inkscape:cx="9.1949998"
     inkscape:cy="9.6815235"
     inkscape:window-x="-8"
     inkscape:window-y="-8"
     inkscape:window-maximized="1"
     inkscape:current-layer="svg2" />
  <path
     d="m 21.56,7.17 c 0.13,0.47 0.22,1.1 0.28,1.9 0.07,0.8 0.1,1.49 0.1,2.09 L 22,12 c 0,2.19 -0.16,3.8 -0.44,4.83 -0.25,0.9 -0.83,1.48 -1.73,1.73 -0.47,0.13 -1.33,0.22 -2.65,0.28 -1.3,0.07 -2.49,0.1 -3.59,0.1 L 12,19 C 7.81,19 5.2,18.84 4.17,18.56 3.27,18.31 2.69,17.73 2.44,16.83 2.31,16.36 2.22,15.73 2.16,14.93 2.09,14.13 2.06,13.44 2.06,12.84 L 2,12 C 2,9.81 2.16,8.2 2.44,7.17 2.69,6.27 3.27,5.69 4.17,5.44 4.64,5.31 5.5,5.22 6.82,5.16 8.12,5.09 9.31,5.06 10.41,5.06 L 12,5 c 4.19,0 6.8,0.16 7.83,0.44 0.9,0.25 1.48,0.83 1.73,1.73 z"
     id="path4"
     style="fill:#ff0000"
     inkscape:connector-curvature="0"
     sodipodi:nodetypes="ccccccccccccccccccccc" />
  <path
     id="path4140"
     d="m 14.394731,8.2542717 -0.837119,0.8371177 c 0.998769,0.6061896 1.668462,1.6973296 1.668462,2.9501206 0,1.910937 -1.552999,3.463936 -3.463935,3.463936 -1.9109399,0 -3.4639386,-1.552999 -3.4639386,-3.463936 0,-1.252791 0.6696949,-2.343931 1.6626905,-2.9558934 L 9.129546,8.2542717 C 7.9287148,9.0856166 7.1435557,10.471191 7.1435557,12.04151 c 0,2.551765 2.0668146,4.61858 4.6185833,4.61858 2.551766,0 4.618581,-2.066815 4.618581,-4.61858 0,-1.570319 -0.785161,-2.9558934 -1.985989,-3.7872383 m -2.05527,-1.4086672 -1.154645,0 0,5.7732275 1.154645,0"
     inkscape:connector-curvature="0"
     style="fill:#ffffff" />
</svg>
